<?xml version="1.0" encoding="utf-8"?>
<!-- Generator: Adobe Illustrator 19.0.0, SVG Export Plug-In . SVG Version: 6.00 Build 0)  -->
<svg version="1.1" id="Capa_1" xmlns="http://www.w3.org/2000/svg" xmlns:xlink="http://www.w3.org/1999/xlink" x="0px" y="0px"
	 viewBox="0 0 30 30" style="enable-background:new 0 0 30 30;" xml:space="preserve">
<style type="text/css">
	.st0{fill:#FFFFFF;}
</style>
<g id="XMLID_2_">
	<path id="XMLID_3_" class="st0" d="M15,0C6.7,0,0,6.7,0,15s6.7,15,15,15s15-6.7,15-15S23.3,0,15,0z M18.9,13.6L18.8,15h-2.6
		c0,4,0,8.9,0,8.9h-3.6c0,0,0-4.9,0-8.9h-1.8v-1.4v-2.1h1.8V9.9c0-1.5,0.7-3.7,3.7-3.7l2.7,0v3c0,0-1.7,0-2,0
		c-0.3,0-0.8,0.2-0.8,0.9v1.4h2.8L18.9,13.6z"/>
</g>
</svg>
