<?xml version="1.0" encoding="utf-8"?>
<!-- Generator: Adobe Illustrator 19.0.0, SVG Export Plug-In . SVG Version: 6.00 Build 0)  -->
<svg version="1.1" id="Capa_1" xmlns="http://www.w3.org/2000/svg" xmlns:xlink="http://www.w3.org/1999/xlink" x="0px" y="0px"
	 viewBox="0 0 67.1 62" style="enable-background:new 0 0 67.1 62;" xml:space="preserve">
<style type="text/css">
	.st0{clip-path:url(#XMLID_3_);}
	.st1{clip-path:url(#XMLID_4_);fill:url(#XMLID_5_);}
</style>
<g id="XMLID_37_">
	<g id="XMLID_38_">
		<defs>
			<rect id="XMLID_39_" x="1" y="0.4" width="61.9" height="61.9"/>
		</defs>
		<clipPath id="XMLID_3_">
			<use xlink:href="#XMLID_39_"  style="overflow:visible;"/>
		</clipPath>
		<g id="XMLID_40_" class="st0">
			<defs>
				<path id="XMLID_41_" d="M38.2,28.7c0.9,1.5,1.6,3.2,1.8,5c0.2,2,0,3.9-0.7,5.7c-0.1,0.3-0.1,0.5,0.2,0.8
					c3.4,2.4,6.9,4.9,10.3,7.3c1.9-1.4,4-1.9,6.4-1.5c1.9,0.4,3.5,1.3,4.7,2.8c2.5,2.9,2.6,7.2,0.3,10.2c-2.3,3.1-6.5,4.2-9.9,2.6
					c-3.6-1.6-5.8-5.7-4.5-10c-3.5-2.5-7-5-10.5-7.5c-4.5,3.5-9.4,4.2-14.3,1.3c-4.2-2.5-6.1-6.5-5.8-11.5c-0.5-0.1-1-0.3-1.5-0.5
					c-1.5-0.5-3-1-4.5-1.5c-0.4-0.1-0.7-0.1-1.1,0.2c-2.1,1.5-4.9,1.2-6.6-0.5c-1.8-1.9-1.9-4.7-0.4-6.7c1.6-2,4.3-2.5,6.5-1.2
					c1.1,0.6,1.8,1.6,2.3,2.8c0.1,0.2,0.3,0.5,0.6,0.6c1.9,0.6,3.9,1.2,5.8,1.9c0.4,0.1,0.6,0.1,0.8-0.3c1.9-2.9,4.6-4.7,8-5.3
					c3-0.5,5.8,0.1,8.5,1.7c0.2-0.1,0.3-0.3,0.5-0.4c3.9-3.9,7.9-7.9,11.8-11.8c0.3-0.3,0.4-0.6,0.2-1.1c-2.2-5,1.2-10.7,6.7-11.3
					c4.3-0.4,8.2,2.6,9,6.7c0.9,4.6-2.6,9.2-7.2,9.7c-1.6,0.1-3.1-0.2-4.5-0.9C46.8,20.2,42.5,24.4,38.2,28.7"/>
			</defs>
			<clipPath id="XMLID_4_">
				<use xlink:href="#XMLID_41_"  style="overflow:visible;"/>
			</clipPath>
			
				<linearGradient id="XMLID_5_" gradientUnits="userSpaceOnUse" x1="-533.8912" y1="2017.6686" x2="-532.8912" y2="2017.6686" gradientTransform="matrix(61.8709 0 0 -61.8709 33033.332 124866.5391)">
				<stop  offset="0" style="stop-color:#C350A8"/>
				<stop  offset="1" style="stop-color:#EED23D"/>
			</linearGradient>
			<rect id="XMLID_42_" x="0.5" y="0" class="st1" width="63.1" height="63.1"/>
		</g>
	</g>
</g>
</svg>
