<?xml version="1.0" encoding="utf-8"?>
<!-- Generator: Adobe Illustrator 19.0.0, SVG Export Plug-In . SVG Version: 6.00 Build 0)  -->
<svg version="1.1" id="Capa_1" xmlns="http://www.w3.org/2000/svg" xmlns:xlink="http://www.w3.org/1999/xlink" x="0px" y="0px"
	 viewBox="0 0 67.1 62" style="enable-background:new 0 0 67.1 62;" xml:space="preserve">
<style type="text/css">
	.st0{clip-path:url(#XMLID_37_);}
	.st1{clip-path:url(#XMLID_38_);fill:url(#XMLID_39_);}
	.st2{clip-path:url(#XMLID_40_);fill:url(#XMLID_41_);}
</style>
<g id="XMLID_2_">
	<g id="XMLID_3_">
		<defs>
			<rect id="XMLID_4_" x="3.6" y="3.2" width="61.9" height="56.2"/>
		</defs>
		<clipPath id="XMLID_37_">
			<use xlink:href="#XMLID_4_"  style="overflow:visible;"/>
		</clipPath>
		<g id="XMLID_8_" class="st0">
			<defs>
				<path id="XMLID_9_" d="M60,31.9c0.3-0.3,0.6-0.7,0.9-1c1-1,2.6-1.1,3.7-0.2c1.1,1,1.2,2.5,0.3,3.7c-0.1,0.2-0.3,0.3-0.4,0.5
					c-1.8,1.8-3.5,3.5-5.3,5.3c-1.2,1.2-2.8,1.2-4,0c-1.8-1.8-3.6-3.6-5.4-5.4c-1.1-1.1-1.2-2.4-0.4-3.5c1-1.3,2.8-1.5,4-0.4
					c0.4,0.3,0.7,0.7,1.1,1.1C54.8,25,51.1,14.5,40,10.2c-9.9-3.9-21.1-0.5-27.2,8.5C6.8,27.8,8,39.7,15.7,47.5
					c7.4,7.5,20.6,9.4,30.4,1.5c1.4,1.1,2.9,2.2,4.3,3.3c-7.6,7.1-20.7,10-32.2,3.7C6.5,49.5,1,35.8,4.8,23.2
					C8.7,10.4,21.1,2.1,34.3,3.4c7.3,0.7,13.4,3.8,18.3,9.2c4.9,5.4,7.2,11.9,7.2,19.2C59.9,31.8,59.9,31.8,60,31.9"/>
			</defs>
			<clipPath id="XMLID_38_">
				<use xlink:href="#XMLID_9_"  style="overflow:visible;"/>
			</clipPath>
			
				<linearGradient id="XMLID_39_" gradientUnits="userSpaceOnUse" x1="-526.6542" y1="2017.6124" x2="-525.6542" y2="2017.6124" gradientTransform="matrix(61.8709 0 0 -61.8709 32588.1973 124863.6797)">
				<stop  offset="0" style="stop-color:#C350A8"/>
				<stop  offset="1" style="stop-color:#EED23D"/>
			</linearGradient>
			<rect id="XMLID_10_" x="1" y="2.1" class="st1" width="64.8" height="60.2"/>
		</g>
		<g id="XMLID_5_" class="st0">
			<defs>
				<path id="XMLID_6_" d="M33.1,32.7c0.6,0,1.1,0,1.6,0c1.4,0,2.8,0,4.1,0.1c1.3,0.1,2.3,1.3,2.3,2.6c0,1.3-1,2.5-2.3,2.6
					c-0.3,0-0.6,0.1-0.9,0.1c-2.4,0-4.9,0-7.3,0c-1.6,0-2.7-0.9-2.9-2.3c0-0.2,0-0.3,0-0.5c0-3.5,0-7,0-10.5c0-1.5,1.2-2.7,2.7-2.7
					c1.5,0,2.7,1.2,2.7,2.7c0,2.4,0,4.9,0,7.3V32.7z"/>
			</defs>
			<clipPath id="XMLID_40_">
				<use xlink:href="#XMLID_6_"  style="overflow:visible;"/>
			</clipPath>
			
				<linearGradient id="XMLID_41_" gradientUnits="userSpaceOnUse" x1="-507.3091" y1="2063.3193" x2="-506.3084" y2="2063.3193" gradientTransform="matrix(13.3944 0 0 -13.3944 6822.8042 27666.9434)">
				<stop  offset="0" style="stop-color:#C350A8"/>
				<stop  offset="1" style="stop-color:#EED23D"/>
			</linearGradient>
			<rect id="XMLID_7_" x="27.7" y="22" class="st2" width="13.4" height="16.1"/>
		</g>
	</g>
</g>
</svg>
