<?xml version="1.0" encoding="utf-8"?>
<!-- Generator: Adobe Illustrator 19.0.0, SVG Export Plug-In . SVG Version: 6.00 Build 0)  -->
<svg version="1.1" id="Capa_1" xmlns="http://www.w3.org/2000/svg" xmlns:xlink="http://www.w3.org/1999/xlink" x="0px" y="0px"
	 viewBox="0 0 67.1 62" style="enable-background:new 0 0 67.1 62;" xml:space="preserve">
<style type="text/css">
	.st0{clip-path:url(#XMLID_36_);}
	.st1{clip-path:url(#XMLID_37_);fill:url(#XMLID_38_);}
</style>
<g id="XMLID_3_">
	<g id="XMLID_4_">
		<defs>
			<rect id="XMLID_5_" x="3.6" y="1.3" width="61.9" height="59.3"/>
		</defs>
		<clipPath id="XMLID_36_">
			<use xlink:href="#XMLID_5_"  style="overflow:visible;"/>
		</clipPath>
		<g id="XMLID_6_" class="st0">
			<defs>
				<path id="XMLID_7_" d="M34.6,49.9c-2.1,1.6-4.3,3.1-6.4,4.6c-2.3,1.7-4.7,3.4-7.1,5.1c-1.6,1.2-3.9,1.2-5.4,0.1
					c-1.7-1.2-2.4-3.3-1.8-5.2c1.5-4.7,3-9.4,4.6-14c0.2-0.5,0.3-1,0.5-1.5c0.1-0.3,0.1-0.4-0.2-0.6c-2.5-1.8-5-3.6-7.5-5.5
					c-1.9-1.4-3.7-2.7-5.6-4.1C3,27,3,23.3,5.5,21.3c0.9-0.7,2-0.9,3.1-0.9c5.3,0,10.5,0,15.8,0c0.4,0,0.6-0.1,0.7-0.5
					c1.6-5.1,3.3-10.2,4.9-15.2c0.7-2,2.4-3.3,4.5-3.3c2.1,0,3.8,1.3,4.5,3.3c1.7,5.1,3.3,10.2,5,15.3c0.1,0.4,0.3,0.5,0.7,0.5
					c5.3,0,10.5,0,15.8,0c1.3,0,2.4,0.3,3.4,1.2c2.1,1.8,2.1,5.2,0,7c-1,0.9-2.2,1.6-3.3,2.4c-3.4,2.5-6.8,4.9-10.1,7.4
					c-0.3,0.2-0.4,0.4-0.2,0.8c1.7,5.1,3.3,10.2,5,15.2c0.9,2.8-0.7,5.5-3.4,6.1c-1.4,0.3-2.6,0-3.7-0.8c-4.4-3.2-8.7-6.3-13.1-9.5
					C34.8,50.1,34.7,50.1,34.6,49.9 M60.7,25.2c0,0,0-0.1,0-0.1h-0.5c-6.3,0-12.5,0-18.8,0c-0.4,0-0.6-0.1-0.7-0.5
					c-1.9-6-3.9-12-5.8-18c0-0.1-0.1-0.2-0.2-0.5c-0.1,0.2-0.1,0.3-0.2,0.5c-2,6-3.9,12-5.8,18c-0.1,0.4-0.3,0.6-0.8,0.6
					c-6.3,0-12.5,0-18.8,0H8.5c0.1,0.2,0.2,0.3,0.4,0.4c5.1,3.7,10.2,7.4,15.3,11.1c0.3,0.2,0.4,0.4,0.2,0.8c-2,6-3.9,12-5.9,18
					c0,0.1-0.1,0.3-0.2,0.5c0.2-0.1,0.3-0.2,0.5-0.3c5.1-3.7,10.3-7.4,15.4-11.2c0.3-0.2,0.5-0.2,0.8,0c5.1,3.7,10.2,7.5,15.4,11.2
					c0.1,0.1,0.3,0.2,0.4,0.3c-0.1-0.2-0.1-0.3-0.1-0.5c-2-6-3.9-12-5.9-18c-0.1-0.4-0.1-0.6,0.3-0.8c4.8-3.5,9.6-7,14.4-10.5
					C59.9,25.8,60.3,25.5,60.7,25.2"/>
			</defs>
			<clipPath id="XMLID_37_">
				<use xlink:href="#XMLID_7_"  style="overflow:visible;"/>
			</clipPath>
			
				<linearGradient id="XMLID_38_" gradientUnits="userSpaceOnUse" x1="-541.1079" y1="2017.6544" x2="-540.1079" y2="2017.6544" gradientTransform="matrix(61.8709 0 0 -61.8709 33482.4648 124865.2266)">
				<stop  offset="0" style="stop-color:#C350A8"/>
				<stop  offset="1" style="stop-color:#EED23D"/>
			</linearGradient>
			<rect id="XMLID_10_" x="3" y="1.3" class="st1" width="63.1" height="59.6"/>
		</g>
	</g>
</g>
</svg>
