<?xml version="1.0" encoding="utf-8"?>
<!-- Generator: Adobe Illustrator 19.0.0, SVG Export Plug-In . SVG Version: 6.00 Build 0)  -->
<svg version="1.1" id="Capa_1" xmlns="http://www.w3.org/2000/svg" xmlns:xlink="http://www.w3.org/1999/xlink" x="0px" y="0px"
	 viewBox="0 0 30 30" style="enable-background:new 0 0 30 30;" xml:space="preserve">
<style type="text/css">
	.st0{fill:#FFFFFF;}
</style>
<g id="XMLID_2_">
	<path id="XMLID_21_" class="st0" d="M15,11.9c-1.8,0-3.3,1.5-3.3,3.3s1.5,3.3,3.3,3.3c1.8,0,3.3-1.5,3.3-3.3S16.9,11.9,15,11.9z"/>
	<path id="XMLID_11_" class="st0" d="M19.3,8h-8.5c-1.6,0-2.9,1.3-2.9,2.9v8.5c0,1.6,1.3,2.9,2.9,2.9h8.5c1.6,0,2.9-1.3,2.9-2.9
		v-8.5C22.2,9.3,20.9,8,19.3,8z M15,19.7c-2.5,0-4.5-2-4.5-4.5s2-4.5,4.5-4.5c2.5,0,4.5,2,4.5,4.5S17.5,19.7,15,19.7z M19.7,11.1
		c-0.4,0-0.7-0.3-0.7-0.7c0-0.4,0.3-0.7,0.7-0.7c0.4,0,0.7,0.3,0.7,0.7C20.4,10.8,20.1,11.1,19.7,11.1z"/>
	<path id="XMLID_3_" class="st0" d="M15,0.4C6.9,0.4,0.2,7,0.2,15.2C0.2,23.4,6.9,30,15,30c8.2,0,14.8-6.6,14.8-14.8
		C29.9,7,23.2,0.4,15,0.4z M23.5,19.4c0,2.3-1.9,4.2-4.2,4.2h-8.5c-2.3,0-4.2-1.9-4.2-4.2v-8.5c0-2.3,1.9-4.2,4.2-4.2h8.5
		c2.3,0,4.2,1.9,4.2,4.2V19.4z"/>
</g>
</svg>
