<?xml version="1.0" encoding="utf-8"?>
<!-- Generator: Adobe Illustrator 19.0.0, SVG Export Plug-In . SVG Version: 6.00 Build 0)  -->
<svg version="1.1" id="Capa_1" xmlns="http://www.w3.org/2000/svg" xmlns:xlink="http://www.w3.org/1999/xlink" x="0px" y="0px"
	 viewBox="0 0 113.7 76.7" style="enable-background:new 0 0 113.7 76.7;" xml:space="preserve">
<style type="text/css">
	.st0{fill:#AEF9B1;}
</style>
<path id="XMLID_3_" class="st0" d="M80.3,54.5c1.1,8.3,5,14.7,12.1,19.4c-0.4-0.1-0.6-0.1-0.8-0.2C78.5,69.5,68.2,61.5,62,49.1
	c-4.5-8.9-5.6-18.3-2.5-27.9C61.9,13.8,66.5,8.3,73.7,5c9.9-4.5,22.2-1.7,29.5,6.6c12,13.6,6.9,34.7-9.9,41.4c-4,1.6-8.1,2-12.4,1.6
	C80.7,54.5,80.6,54.5,80.3,54.5"/>
<path id="XMLID_2_" class="st0" d="M25.6,54.7c1.1,8.1,5,14.5,11.8,19.3c-1.8-0.7-3.7-1.3-5.5-2.1C21.2,67.2,12.7,60,7.4,49.4
	c-4.6-9.2-5.8-18.8-2.5-28.7c2.7-7.9,7.8-13.6,15.8-16.4C36-1,52.3,8.9,54.8,25C57,39.1,47.1,52.4,33,54.4
	C30.6,54.7,28.1,54.6,25.6,54.7"/>
</svg>
