<?xml version="1.0" encoding="utf-8"?>
<!-- Generator: Adobe Illustrator 19.0.0, SVG Export Plug-In . SVG Version: 6.00 Build 0)  -->
<svg version="1.1" id="Capa_1" xmlns="http://www.w3.org/2000/svg" xmlns:xlink="http://www.w3.org/1999/xlink" x="0px" y="0px"
	 viewBox="0 0 113.7 76.7" style="enable-background:new 0 0 113.7 76.7;" xml:space="preserve">
<style type="text/css">
	.st0{fill:#AEF9B1;}
</style>
<path id="XMLID_3_" class="st0" d="M32.6,54.5c-1.1,8.3-5,14.7-12.1,19.4c0.4-0.1,0.6-0.1,0.8-0.2c13.1-4.3,23.3-12.2,29.6-24.7
	c4.5-8.9,5.6-18.3,2.5-27.9C51,13.8,46.3,8.3,39.1,5c-9.9-4.5-22.2-1.7-29.5,6.6c-12,13.6-6.9,34.7,9.9,41.4c4,1.6,8.1,2,12.4,1.6
	C32.1,54.5,32.2,54.5,32.6,54.5"/>
<path id="XMLID_2_" class="st0" d="M87.2,54.7c-1.1,8.1-5,14.5-11.8,19.3c1.8-0.7,3.7-1.3,5.5-2.1c10.7-4.7,19.2-12,24.5-22.5
	c4.6-9.2,5.8-18.8,2.5-28.7c-2.7-7.9-7.8-13.6-15.8-16.4C76.8-1,60.5,8.9,58,25c-2.2,14.1,7.7,27.4,21.8,29.4
	C82.2,54.7,84.7,54.6,87.2,54.7"/>
</svg>
