<?xml version="1.0" encoding="utf-8"?>
<!-- Generator: Adobe Illustrator 19.0.0, SVG Export Plug-In . SVG Version: 6.00 Build 0)  -->
<svg version="1.1" id="Capa_1" xmlns="http://www.w3.org/2000/svg" xmlns:xlink="http://www.w3.org/1999/xlink" x="0px" y="0px"
	 viewBox="0 0 30 30" style="enable-background:new 0 0 30 30;" xml:space="preserve">
<style type="text/css">
	.st0{fill:#FFFFFF;}
</style>
<g id="XMLID_2_">
	<path id="XMLID_3_" class="st0" d="M15.2,0C7,0,0.4,6.6,0.4,14.8C0.4,23,7,29.6,15.2,29.6C23.4,29.6,30,23,30,14.8
		C30,6.6,23.4,0,15.2,0z M22.2,12.1c0,0.2,0,0.3,0,0.5c0,0.7-0.1,1.4-0.2,2.1c-0.9,4-4.4,7.9-10,7.9c-2,0-3.9-0.6-5.5-1.6
		c0.3,0,0.6,0.1,0.9,0.1c1.7,0,3.2-0.6,4.5-1.5c-1.6,0-2.9-1.1-3.4-2.5c0.2,0,0.4,0.1,0.7,0.1c0.3,0,0.6,0,0.9-0.1
		c-1.2-0.2-2.2-1.1-2.6-2.2c-0.2-0.4-0.2-0.8-0.2-1.3c0,0,0,0,0,0c0.5,0.3,1,0.4,1.6,0.4c-1-0.6-1.6-1.7-1.6-3
		c0-0.6,0.2-1.3,0.5-1.8c1.8,2.1,4.4,3.6,7.4,3.7C15,12.7,15,12.5,15,12.2c0-2,1.6-3.5,3.6-3.5c1,0,2,0.4,2.6,1.1
		c0.8-0.2,1.6-0.5,2.3-0.9c-0.3,0.8-0.8,1.5-1.6,2c0.7-0.1,1.4-0.3,2.1-0.6C23.5,11,22.9,11.6,22.2,12.1z"/>
</g>
</svg>
