<?xml version="1.0" encoding="utf-8"?>
<!-- Generator: Adobe Illustrator 19.0.0, SVG Export Plug-In . SVG Version: 6.00 Build 0)  -->
<svg version="1.1" id="Capa_1" xmlns="http://www.w3.org/2000/svg" xmlns:xlink="http://www.w3.org/1999/xlink" x="0px" y="0px"
	 viewBox="0 0 30 30" style="enable-background:new 0 0 30 30;" xml:space="preserve">
<style type="text/css">
	.st0{fill:#FFFFFF;}
</style>
<g id="XMLID_2_">
	<path id="XMLID_6_" class="st0" d="M14.9,0.3C6.7,0.3,0,6.9,0,15.1S6.7,30,14.9,30c8.2,0,14.9-6.7,14.9-14.9S23.1,0.3,14.9,0.3z
		 M23.7,14.7v1.1c0,1.5-0.2,3-0.2,3s-0.2,1.3-0.7,1.8c-0.7,0.7-1.4,0.7-1.8,0.8c-2.5,0.2-6.2,0.2-6.2,0.2s-4.6,0-6-0.2
		c-0.4-0.1-1.3-0.1-1.9-0.8c-0.5-0.6-0.7-1.8-0.7-1.8s-0.2-1.5-0.2-3v-1.2v-0.2c0-1.5,0.2-3,0.2-3s0.2-1.3,0.7-1.8
		C7.6,9,8.4,8.9,8.7,8.9c2.5-0.2,6.2-0.2,6.2-0.2h0c0,0,3.7,0,6.2,0.2c0.3,0,1.1,0,1.8,0.8c0.5,0.6,0.7,1.8,0.7,1.8s0.2,1.5,0.2,3
		V14.7z"/>
	<polygon id="XMLID_3_" class="st0" points="13,12.4 13,13.6 13,17.6 17.8,15 15.2,13.6 	"/>
</g>
</svg>
